<svg width="284" height="72" viewBox="0 0 284 72" fill="none" xmlns="http://www.w3.org/2000/svg">
<path d="M110.48 10.744C110.48 7.576 111.44 5.112 113.36 3.352C115.28 1.592 117.936 0.711998 121.328 0.711998C124.752 0.711998 128.272 1.032 131.888 1.672L130.784 10.12C126.784 9.32 124.16 8.92 122.912 8.92C121.664 8.92 121.04 9.304 121.04 10.072C121.04 10.36 121.136 10.568 121.328 10.696C121.52 10.792 121.664 10.872 121.76 10.936C121.856 11 122.032 11.08 122.288 11.176C122.576 11.272 122.8 11.368 122.96 11.464C123.152 11.528 123.728 11.768 124.688 12.184C125.68 12.568 126.416 12.888 126.896 13.144C127.408 13.368 128.096 13.752 128.96 14.296C131.456 15.928 132.704 18.328 132.704 21.496C132.704 24.664 131.76 27.128 129.872 28.888C127.984 30.616 125.264 31.48 121.712 31.48C118.192 31.48 114.736 31.048 111.344 30.184L112.016 22.072C116.304 23.16 119.2 23.704 120.704 23.704C121.696 23.704 122.192 23.352 122.192 22.648C122.192 22.328 122.064 22.072 121.808 21.88C121.584 21.688 121.232 21.48 120.752 21.256C120.304 21.032 119.632 20.744 118.736 20.392C117.84 20.008 117.088 19.688 116.48 19.432C115.872 19.144 115.152 18.712 114.32 18.136C111.76 16.376 110.48 13.912 110.48 10.744ZM143.043 31.48C140.547 31.48 138.707 31.016 137.523 30.088C136.371 29.128 135.795 27.496 135.795 25.192V14.776H133.251V8.296H136.275L136.899 4.024H145.779V8.296H150.147V14.776H145.731V23.656C145.731 24.072 145.923 24.28 146.307 24.28C146.339 24.28 147.603 24.216 150.099 24.088L149.811 31C146.611 31.32 144.355 31.48 143.043 31.48ZM159.037 31.48C154.493 31.48 152.221 29.304 152.221 24.952V8.008H162.301V23.08C162.301 23.592 162.525 23.848 162.973 23.848C163.453 23.848 164.077 23.688 164.845 23.368V8.008H174.877V30.904H165.277V29.704H164.989C163.133 30.888 161.149 31.48 159.037 31.48ZM197.152 31.48C194.656 31.48 192.944 30.856 192.016 29.608H191.824C190.352 30.856 188.608 31.48 186.592 31.48C183.264 31.48 180.896 30.424 179.488 28.312C178.08 26.2 177.376 23.208 177.376 19.336C177.376 15.464 178.144 12.52 179.68 10.504C181.248 8.456 183.488 7.432 186.4 7.432C188.064 7.432 189.408 7.688 190.432 8.2V0.231998H200.08V23.8C200.08 24.216 200.224 24.504 200.512 24.664C200.832 24.824 201.376 24.904 202.144 24.904L201.28 31.288C199.616 31.416 198.24 31.48 197.152 31.48ZM188.896 14.728C188.256 14.728 187.84 15.096 187.648 15.832C187.488 16.568 187.408 17.848 187.408 19.672C187.408 21.496 187.488 22.776 187.648 23.512C187.808 24.216 188.208 24.568 188.848 24.568C189.52 24.568 190.048 24.504 190.432 24.376V15.064C189.888 14.84 189.376 14.728 188.896 14.728ZM215.103 20.44C216.575 12.344 217.327 8.2 217.359 8.008H227.247L220.575 31.384C219.903 33.752 218.863 35.368 217.455 36.232C216.079 37.128 213.807 37.576 210.639 37.576H204.879L203.775 30.712H207.615C208.447 30.712 208.863 30.44 208.863 29.896C208.863 29.544 208.783 29.096 208.623 28.552L202.335 8.008H212.895L214.911 20.44H215.103ZM124.064 59.688H122V69H111.92V39.192H123.536C127.472 39.192 130.336 39.992 132.128 41.592C133.92 43.192 134.816 45.832 134.816 49.512C134.816 53.192 133.952 55.816 132.224 57.384C130.496 58.92 127.776 59.688 124.064 59.688ZM124.544 52.728C124.832 52.216 124.976 51.352 124.976 50.136C124.976 48.92 124.816 48.056 124.496 47.544C124.208 47.032 123.648 46.776 122.816 46.776H121.808V53.496H123.056C123.792 53.496 124.288 53.24 124.544 52.728ZM156.963 52.2L156.675 61.8C156.675 62.248 156.835 62.552 157.155 62.712C157.507 62.84 158.115 62.904 158.979 62.904L158.067 69.288C156.147 69.416 154.851 69.48 154.179 69.48C151.843 69.48 150.147 68.856 149.091 67.608H148.755C147.219 68.856 145.283 69.48 142.947 69.48C140.643 69.48 138.883 68.872 137.667 67.656C136.483 66.408 135.891 64.696 135.891 62.52C135.891 59.832 136.787 57.96 138.579 56.904C140.403 55.848 143.283 55.176 147.219 54.888V54.024C147.219 53.448 146.915 53.16 146.307 53.16C144.675 53.16 141.875 53.656 137.907 54.648L136.419 47.064C140.995 45.976 144.931 45.432 148.227 45.432C151.523 45.432 153.795 45.976 155.043 47.064C156.323 48.152 156.963 49.864 156.963 52.2ZM146.115 63.288C147.043 63.288 147.507 62.808 147.507 61.848V60.024C145.843 60.248 145.011 60.888 145.011 61.944C145.011 62.84 145.379 63.288 146.115 63.288ZM170.596 56.136V69H160.708V46.008H169.252L169.54 47.544H169.732C170.5 46.84 171.38 46.36 172.372 46.104C173.364 45.816 174.82 45.672 176.74 45.672L176.452 53.64H173.188C172.228 53.64 171.556 53.816 171.172 54.168C170.788 54.52 170.596 55.176 170.596 56.136ZM187.153 69.48C184.657 69.48 182.817 69.016 181.633 68.088C180.481 67.128 179.905 65.496 179.905 63.192V52.776H177.361V46.296H180.385L181.009 42.024H189.889V46.296H194.257V52.776H189.841V61.656C189.841 62.072 190.033 62.28 190.417 62.28C190.449 62.28 191.713 62.216 194.209 62.088L193.921 69C190.721 69.32 188.465 69.48 187.153 69.48ZM212.267 45.432C216.747 45.432 218.987 47.608 218.987 51.96V69H208.859V54.12C208.859 53.608 208.587 53.352 208.043 53.352C207.531 53.352 206.955 53.512 206.315 53.832V69H196.331V46.008H205.403L205.691 47.496C207.707 46.12 209.899 45.432 212.267 45.432ZM232.822 53.16C232.15 53.16 231.686 53.368 231.43 53.784C231.174 54.2 231.046 54.84 231.046 55.704H234.502V54.936C234.502 53.752 233.942 53.16 232.822 53.16ZM221.158 57.432C221.158 53.624 222.15 50.68 224.134 48.6C226.15 46.488 229.094 45.432 232.966 45.432C236.87 45.432 239.622 46.232 241.222 47.832C242.854 49.432 243.67 51.72 243.67 54.696C243.67 55.88 243.542 57.672 243.286 60.072H231.238C231.366 61.8 232.422 62.664 234.406 62.664C235.334 62.664 237.766 62.328 241.702 61.656L242.518 68.136C239.126 69.032 235.958 69.48 233.014 69.48C229.174 69.48 226.23 68.424 224.182 66.312C222.166 64.2 221.158 61.24 221.158 57.432ZM255.908 56.136V69H246.02V46.008H254.564L254.852 47.544H255.044C255.812 46.84 256.692 46.36 257.684 46.104C258.676 45.816 260.132 45.672 262.052 45.672L261.764 53.64H258.5C257.54 53.64 256.868 53.816 256.484 54.168C256.1 54.52 255.908 55.176 255.908 56.136ZM281.681 61.848C281.681 66.936 278.721 69.48 272.801 69.48C269.729 69.48 266.753 69.144 263.873 68.472L264.497 61.416C268.497 62.376 271.153 62.856 272.465 62.856C272.913 62.856 273.137 62.712 273.137 62.424C273.137 62.136 272.881 61.896 272.369 61.704C269.073 60.584 266.673 59.4 265.169 58.152C263.665 56.904 262.913 55.112 262.913 52.776C262.913 50.44 263.729 48.632 265.361 47.352C267.025 46.072 269.249 45.432 272.033 45.432C274.849 45.432 277.937 45.752 281.297 46.392L280.289 53.64C276.065 52.808 273.505 52.392 272.609 52.392C272.193 52.392 271.985 52.552 271.985 52.872C271.985 53.128 272.257 53.352 272.801 53.544C275.457 54.408 277.377 55.272 278.561 56.136C279.745 56.968 280.561 57.832 281.009 58.728C281.457 59.624 281.681 60.664 281.681 61.848Z" fill="#353535"/>
<path d="M100 8.92985V39.1291C100 39.1291 93.5179 40.3904 92.1786 40.5681C90.8393 40.7457 86.6786 42.078 83.6429 39.1824C78.9643 34.6348 62.375 18.2028 62.375 18.2028C61.3323 17.3594 60.0464 16.8685 58.7042 16.8014C57.362 16.7343 56.0332 17.0945 54.9107 17.8298C50.6964 20.0325 44.4286 23.2834 41.8214 24.5447C40.9423 25.0559 39.9471 25.3369 38.9291 25.3613C37.9111 25.3856 36.9035 25.1526 36.0007 24.684C35.0978 24.2154 34.3293 23.5266 33.767 22.682C33.2047 21.8374 32.8671 20.8647 32.7857 19.8549C32.8429 18.7054 33.2252 17.5954 33.8886 16.6526C34.5521 15.7098 35.4696 14.9725 36.5357 14.5256C42.4821 10.9727 55.0357 3.86703 60.2679 1.16685C63.4464 -0.609574 65.7321 -0.609574 70.1071 2.94328C75.4821 7.54424 80.3571 11.5767 80.3571 11.5767C80.9345 11.9864 81.5942 12.2668 82.2908 12.3987C82.9875 12.5305 83.7046 12.5107 84.3929 12.3406C90.4107 11.0971 100 8.92985 100 8.92985ZM33.9286 59.9489C34.3329 59.0261 34.4661 58.0082 34.313 57.0132C34.1599 56.0181 33.7266 55.0866 33.0633 54.3264C32.4 53.5662 31.5338 53.0084 30.5651 52.7176C29.5963 52.4268 28.5646 52.4149 27.5893 52.6833C27.8853 51.7733 27.9355 50.8019 27.7349 49.8665C27.5343 48.9311 27.09 48.0646 26.4464 47.354C25.7459 46.6895 24.8839 46.2173 23.9448 45.9838C23.0057 45.7502 22.0218 45.7633 21.0893 46.0217C21.3829 45.1102 21.4303 44.1378 21.2265 43.2024C21.0228 42.2669 20.5751 41.4012 19.9286 40.6924C18.7713 39.629 17.2419 39.0579 15.667 39.101C14.0922 39.1442 12.5967 39.7982 11.5 40.9233C9.03571 43.2682 7.44643 47.5317 9.71428 50.0542C11.9821 52.5767 14.4286 51.0312 16.3571 50.5871C15.8214 52.4879 14.2143 54.2643 16.1964 56.7513C18.1786 59.2383 20.9107 57.7284 22.8393 57.2842C22.3036 59.185 20.7679 61.1213 22.6607 63.4307C24.5536 65.7401 27.7321 64.5143 29.8036 63.8748C29 65.9177 27.2857 68.1205 29.4821 70.6075C31.6786 73.0945 36.7679 71.9398 39.25 69.5771C40.4276 68.5443 41.1453 67.089 41.2458 65.5305C41.3462 63.9719 40.8211 62.4374 39.7857 61.2635C39.0304 60.5217 38.0813 60.0054 37.0461 59.7731C36.0108 59.5407 34.9308 59.6016 33.9286 59.9489ZM79.1964 44.2808L60.0357 25.3085C59.1495 24.4839 58.0429 23.9313 56.8487 23.717C55.6545 23.5028 54.4235 23.6359 53.3036 24.1006C50.625 25.273 47.1786 26.8718 44.5714 28.0798C42.7767 29.143 40.773 29.8094 38.6964 30.0338C36.518 30.0545 34.3926 29.3656 32.6445 28.0724C30.8964 26.7791 29.6215 24.9524 29.0145 22.871C28.4075 20.7897 28.5016 18.5679 29.2824 16.5447C30.0633 14.5215 31.488 12.808 33.3393 11.6656C37.5 8.84103 46.5893 3.99138 46.5893 3.99138C45.4455 2.79511 44.0558 1.85844 42.5149 1.24529C40.974 0.632139 39.3183 0.356954 37.6607 0.438519C31.5536 0.438519 18.7679 8.78774 18.7679 8.78774C17.4151 9.49084 15.9187 9.87715 14.3929 9.91717C12.8672 9.95719 11.3524 9.64987 9.96429 9.01867L0 5.5724V40.0351C0 40.0351 2.83929 40.8523 5.35714 41.8116C5.9291 40.1529 6.88308 38.6503 8.14286 37.4238C10.175 35.4841 12.8767 34.3922 15.693 34.3724C18.5092 34.3525 21.2262 35.4063 23.2857 37.3172C24.4317 38.4942 25.2555 39.9437 25.6786 41.5273C27.2275 42.007 28.6326 42.8615 29.7679 44.0143C30.918 45.2133 31.7362 46.6883 32.1429 48.2955C33.7756 48.7996 35.2468 49.7211 36.4094 50.9681C37.572 52.215 38.3852 53.7437 38.7679 55.4012C40.39 55.8607 41.8619 56.7368 43.0357 57.9415C44.1312 59.0812 44.9414 60.4615 45.4005 61.9707C45.8597 63.48 45.9549 65.0756 45.6786 66.6283C45.6786 66.6283 47.1071 68.2271 47.9821 69.0975C48.8062 69.9173 49.9239 70.3778 51.0893 70.3778C52.2547 70.3778 53.3724 69.9173 54.1964 69.0975C55.0205 68.2777 55.4834 67.1659 55.4834 66.0065C55.4834 64.8472 55.0205 63.7353 54.1964 62.9155C54.1964 62.9155 57.7679 67.3211 61.8393 64.692C65.4107 62.205 64.8571 59.2561 63.1607 57.5862C63.6786 58.1996 64.3213 58.6968 65.0464 59.045C65.7715 59.3931 66.5626 59.5845 67.3675 59.6063C68.1723 59.6281 68.9727 59.4799 69.7158 59.1716C70.459 58.8632 71.1279 58.4016 71.6786 57.8172C72.4451 57.0448 72.8938 56.0154 72.9368 54.9308C72.9797 53.8463 72.6138 52.7849 71.9107 51.955C71.9107 51.955 74.2857 55.1703 79.0536 52.1681C82.4286 49.3258 80.8393 46.075 79.0536 44.3696L79.1964 44.2808Z" fill="#B8EE30"/>
</svg>
